# xmcd CD database file
#
# Track frame offsets:
#	150
#	22792
#	43867
#	64450
#	93810
#	123417
#	139750
#	154635
#	168815
#
# Disc length: 2677 seconds
#
# Revision: 12
# Processed by: cddbd v1.5.2PL0 Copyright (c) Steve Scherf et al.
# Submitted via: CDex 1.70beta3
#
DISCID=6b0a7309
DTITLE=中島みゆき - 予感
DYEAR=0
DGENRE=JPop
TTITLE0=この世に二人だけ
TTITLE1=夏土産
TTITLE2=髪を洗う女
TTITLE3=ばいばいどぐおぶざべい
TTITLE4=誰のせいでもない雨が
TTITLE5=縁
TTITLE6=テキーラを飲みほして
TTITLE7=金魚
TTITLE8=ファイト！
EXTD=YEAR: 0
EXTT0=
EXTT1=
EXTT2=
EXTT3=
EXTT4=
EXTT5=
EXTT6=
EXTT7=
EXTT8=
PLAYORDER=
